<svg xmlns="http://www.w3.org/2000/svg" viewBox="0 0 79.37 79.37"><defs><style>.cls-1{isolation:isolate;}.cls-2{fill:#40beb0;}.cls-3{fill:#09a5de;mix-blend-mode:multiply;}</style></defs><title>icons-masterfilefinal</title><g class="cls-1"><g id="Layer_1" data-name="Layer 1"><path class="cls-2" d="M57.92,60.32,39.18,56.89a1.21,1.21,0,0,0-.44,0L20,60.32a1.21,1.21,0,0,1-1.4-1.4L22,40.18a1.21,1.21,0,0,0,0-.44L18.59,21a1.21,1.21,0,0,1,1.4-1.4L38.74,23a1.21,1.21,0,0,0,.44,0l18.74-3.44a1.21,1.21,0,0,1,1.4,1.4L55.89,39.74a1.21,1.21,0,0,0,0,.44l3.44,18.74A1.21,1.21,0,0,1,57.92,60.32Z"/><circle class="cls-3" cx="22.07" cy="39.96" r="4.83"/><circle class="cls-3" cx="38.96" cy="23.07" r="4.83"/><circle class="cls-3" cx="38.96" cy="39.96" r="4.83"/><circle class="cls-3" cx="55.85" cy="39.96" r="4.83"/><circle class="cls-3" cx="38.96" cy="56.85" r="4.83"/><circle class="cls-3" cx="59.64" cy="19.28" r="4.83" transform="translate(3.84 47.82) rotate(-45)"/><circle class="cls-3" cx="59.64" cy="60.64" r="4.83" transform="translate(-25.41 59.93) rotate(-45)"/><circle class="cls-3" cx="18.28" cy="19.28" r="4.83" transform="translate(-8.28 18.57) rotate(-45)"/><circle class="cls-3" cx="18.28" cy="60.64" r="4.83" transform="translate(-37.52 30.69) rotate(-45)"/></g></g></svg>